<svg width="120px" height="120px">
    <path class="outer-path" stroke="#fff" d="M 60 60 m 0 -50 a 50 50 0 1 1 0 100 a 50 50 0 1 1 0 -100"></path>
    <path class="inner-path" stroke="rgba(255, 255, 255, 0.5)" d="M 60 60 m 0 -30 a 30 30 0 1 1 0 60 a 30 30 0 1 1 0 -60"></path>
    <path class="success-path" stroke="#fff" d="M 60 10 A 50 50 0 0 1 91 21 L 75 45 L 55 75 L 45 65"></path>
    <path class="error-path" stroke="#fff" d="M 60 10 A 50 50 0 0 1 95 25 L 45 75"></path>
    <path class="error-path2" stroke="#fff" d="M 60 30 A 30 30 0 0 1 81 81 L 45 45"></path>
</svg>